<?xml version="1.0" encoding="UTF-8" standalone="no"?>
<!DOCTYPE svg PUBLIC "-//W3C//DTD SVG 1.1//EN"
 "http://www.w3.org/Graphics/SVG/1.1/DTD/svg11.dtd">
<!-- Generated by graphviz version 2.40.1 (0)
 -->
<!-- Title: nixstore Pages: 1 -->
<svg width="1075pt" height="200pt"
 viewBox="0.00 0.00 1074.81 200.00" xmlns="http://www.w3.org/2000/svg" xmlns:xlink="http://www.w3.org/1999/xlink">
<g id="graph0" class="graph" transform="scale(1 1) rotate(0) translate(4 196)">
<title>nixstore</title>
<polygon fill="#ffffff" stroke="transparent" points="-4,4 -4,-196 1070.8068,-196 1070.8068,4 -4,4"/>
<!-- N0 -->
<g id="node1" class="node">
<title>N0</title>
<polygon fill="#0d24c0" stroke="#0d24c0" points="739.856,-88.5442 739.856,-103.4558 535.7372,-114 247.0696,-114 42.9508,-103.4558 42.9508,-88.5442 247.0696,-78 535.7372,-78 739.856,-88.5442"/>
<polygon fill="none" stroke="#0d24c0" points="743.8586,-84.7456 743.8586,-107.2544 535.8406,-118 246.9663,-118 38.9483,-107.2544 38.9483,-84.7456 246.9663,-74 535.8406,-74 743.8586,-84.7456"/>
<polygon fill="none" stroke="#0d24c0" points="747.8611,-80.947 747.8611,-111.053 535.944,-122 246.8629,-122 34.9457,-111.053 34.9457,-80.947 246.8629,-70 535.944,-70 747.8611,-80.947"/>
<text text-anchor="middle" x="391.4034" y="-92.3" font-family="Times-Roman" font-size="14.00" fill="#ffffff">/nix/var/nix/profiles/per&#45;user/root/channels&#45;1&#45;link (51 B)</text>
</g>
<!-- N3 -->
<g id="node4" class="node">
<title>N3</title>
<polygon fill="#ff0000" stroke="#ff0000" points="1066.8068,-79 818.8068,-79 818.8068,-43 1066.8068,-43 1066.8068,-79"/>
<text text-anchor="middle" x="942.8068" y="-57.3" font-family="Times-Roman" font-size="14.00" fill="#000000">user&#45;environment (52.42 MiB)</text>
</g>
<!-- N0&#45;&gt;N3 -->
<g id="edge1" class="edge">
<title>N0&#45;&gt;N3</title>
<path fill="none" stroke="#000000" d="M682.4448,-77.5263C726.5297,-74.7281 770.0899,-71.9631 808.5982,-69.5188"/>
<polygon fill="#000000" stroke="#000000" points="809.0393,-72.998 818.7974,-68.8714 808.5958,-66.012 809.0393,-72.998"/>
</g>
<!-- N1 -->
<g id="node2" class="node">
<title>N1</title>
<polygon fill="#e7ff03" stroke="#e7ff03" points="774.7122,-158.5442 774.7122,-173.4558 550.1751,-184 232.6317,-184 8.0946,-173.4558 8.0946,-158.5442 232.6317,-148 550.1751,-148 774.7122,-158.5442"/>
<polygon fill="none" stroke="#e7ff03" points="778.7113,-154.7275 778.7113,-177.2725 550.269,-188 232.5379,-188 4.0956,-177.2725 4.0956,-154.7275 232.5379,-144 550.269,-144 778.7113,-154.7275"/>
<polygon fill="none" stroke="#e7ff03" points="782.7103,-150.9109 782.7103,-181.0891 550.3628,-192 232.4441,-192 .0966,-181.0891 .0966,-150.9109 232.4441,-140 550.3628,-140 782.7103,-150.9109"/>
<text text-anchor="middle" x="391.4034" y="-162.3" font-family="Times-Roman" font-size="14.00" fill="#000000">/nix/var/nix/profiles/per&#45;user/coucou/profile&#45;1&#45;link (27.05 MiB)</text>
</g>
<!-- N2 -->
<g id="node3" class="node">
<title>N2</title>
<polygon fill="#0d24c0" stroke="#0d24c0" points="751.7758,-18.5442 751.7758,-33.4558 540.6745,-44 242.1323,-44 31.0311,-33.4558 31.0311,-18.5442 242.1323,-8 540.6745,-8 751.7758,-18.5442"/>
<polygon fill="none" stroke="#0d24c0" points="755.7778,-14.7391 755.7778,-37.2609 540.7745,-48 242.0324,-48 27.029,-37.2609 27.029,-14.7391 242.0324,-4 540.7745,-4 755.7778,-14.7391"/>
<polygon fill="none" stroke="#0d24c0" points="759.7798,-10.934 759.7798,-41.066 540.8744,-52 241.9324,-52 23.027,-41.066 23.027,-10.934 241.9324,0 540.8744,0 759.7798,-10.934"/>
<text text-anchor="middle" x="391.4034" y="-22.3" font-family="Times-Roman" font-size="14.00" fill="#ffffff">/nix/var/nix/profiles/per&#45;user/coucou/channels&#45;1&#45;link (53 B)</text>
</g>
<!-- N2&#45;&gt;N3 -->
<g id="edge2" class="edge">
<title>N2&#45;&gt;N3</title>
<path fill="none" stroke="#000000" d="M686.4762,-44.7296C729.0734,-47.4334 771.0509,-50.0979 808.3143,-52.4632"/>
<polygon fill="#000000" stroke="#000000" points="808.4944,-55.9816 818.696,-53.1221 808.9379,-48.9956 808.4944,-55.9816"/>
</g>
</g>
</svg>
