<?xml version="1.0" encoding="UTF-8" standalone="no"?>
<!DOCTYPE svg PUBLIC "-//W3C//DTD SVG 1.1//EN"
 "http://www.w3.org/Graphics/SVG/1.1/DTD/svg11.dtd">
<!-- Generated by graphviz version 2.40.1 (0)
 -->
<!-- Title: nixstore Pages: 1 -->
<svg width="1086pt" height="270pt"
 viewBox="0.00 0.00 1086.06 270.00" xmlns="http://www.w3.org/2000/svg" xmlns:xlink="http://www.w3.org/1999/xlink">
<g id="graph0" class="graph" transform="scale(1 1) rotate(0) translate(4 266)">
<title>nixstore</title>
<polygon fill="#ffffff" stroke="transparent" points="-4,4 -4,-266 1082.0627,-266 1082.0627,4 -4,4"/>
<!-- N0 -->
<g id="node1" class="node">
<title>N0</title>
<polygon fill="#0d24c0" stroke="#0d24c0" points="745.4839,-88.5442 745.4839,-103.4558 541.3651,-114 252.6976,-114 48.5788,-103.4558 48.5788,-88.5442 252.6976,-78 541.3651,-78 745.4839,-88.5442"/>
<polygon fill="none" stroke="#0d24c0" points="749.4865,-84.7456 749.4865,-107.2544 541.4685,-118 252.5942,-118 44.5762,-107.2544 44.5762,-84.7456 252.5942,-74 541.4685,-74 749.4865,-84.7456"/>
<polygon fill="none" stroke="#0d24c0" points="753.4891,-80.947 753.4891,-111.053 541.5719,-122 252.4908,-122 40.5736,-111.053 40.5736,-80.947 252.4908,-70 541.5719,-70 753.4891,-80.947"/>
<text text-anchor="middle" x="397.0314" y="-92.3" font-family="Times-Roman" font-size="14.00" fill="#ffffff">/nix/var/nix/profiles/per&#45;user/root/channels&#45;1&#45;link (51 B)</text>
</g>
<!-- N4 -->
<g id="node5" class="node">
<title>N4</title>
<polygon fill="#8bff06" stroke="#8bff06" points="1078.0627,-79 830.0627,-79 830.0627,-43 1078.0627,-43 1078.0627,-79"/>
<text text-anchor="middle" x="954.0627" y="-57.3" font-family="Times-Roman" font-size="14.00" fill="#000000">user&#45;environment (52.42 MiB)</text>
</g>
<!-- N0&#45;&gt;N4 -->
<g id="edge1" class="edge">
<title>N0&#45;&gt;N4</title>
<path fill="none" stroke="#000000" d="M689.4133,-77.6287C735.0579,-74.7607 780.2046,-71.924 819.9335,-69.4278"/>
<polygon fill="#000000" stroke="#000000" points="820.1536,-72.9209 829.9144,-68.8006 819.7145,-65.9347 820.1536,-72.9209"/>
</g>
<!-- N1 -->
<g id="node2" class="node">
<title>N1</title>
<polygon fill="#ff0000" stroke="#ff0000" points="786.0934,-228.5442 786.0934,-243.4558 558.1861,-254 235.8766,-254 7.9693,-243.4558 7.9693,-228.5442 235.8766,-218 558.1861,-218 786.0934,-228.5442"/>
<polygon fill="none" stroke="#ff0000" points="790.0938,-224.725 790.0938,-247.275 558.2786,-258 235.7841,-258 3.969,-247.275 3.969,-224.725 235.7841,-214 558.2786,-214 790.0938,-224.725"/>
<polygon fill="none" stroke="#ff0000" points="794.0941,-220.9057 794.0941,-251.0943 558.3711,-262 235.6916,-262 -.0314,-251.0943 -.0314,-220.9057 235.6916,-210 558.3711,-210 794.0941,-220.9057"/>
<text text-anchor="middle" x="397.0314" y="-232.3" font-family="Times-Roman" font-size="14.00" fill="#000000">/nix/var/nix/profiles/per&#45;user/coucou/profile&#45;2&#45;link (137.18 MiB)</text>
</g>
<!-- N5 -->
<g id="node6" class="node">
<title>N5</title>
<polygon fill="#0ae57e" stroke="#0ae57e" points="1073.5627,-219 834.5627,-219 834.5627,-183 1073.5627,-183 1073.5627,-219"/>
<text text-anchor="middle" x="954.0627" y="-197.3" font-family="Times-Roman" font-size="14.00" fill="#000000">nix&#45;index&#45;0.1.0 (27.05 MiB)</text>
</g>
<!-- N1&#45;&gt;N5 -->
<g id="edge2" class="edge">
<title>N1&#45;&gt;N5</title>
<path fill="none" stroke="#000000" d="M704.0613,-216.7084C746.3647,-214.0503 787.7815,-211.448 824.3524,-209.1501"/>
<polygon fill="#000000" stroke="#000000" points="824.7747,-212.6306 834.5355,-208.5103 824.3356,-205.6443 824.7747,-212.6306"/>
</g>
<!-- N2 -->
<g id="node3" class="node">
<title>N2</title>
<polygon fill="#0d24c0" stroke="#0d24c0" points="774.1738,-158.5442 774.1738,-173.4558 553.2489,-184 240.8138,-184 19.8889,-173.4558 19.8889,-158.5442 240.8138,-148 553.2489,-148 774.1738,-158.5442"/>
<polygon fill="none" stroke="#0d24c0" points="778.1746,-154.7305 778.1746,-177.2695 553.3443,-188 240.7184,-188 15.8881,-177.2695 15.8881,-154.7305 240.7184,-144 553.3443,-144 778.1746,-154.7305"/>
<polygon fill="none" stroke="#0d24c0" points="782.1753,-150.9169 782.1753,-181.0831 553.4398,-192 240.623,-192 11.8874,-181.0831 11.8874,-150.9169 240.623,-140 553.4398,-140 782.1753,-150.9169"/>
<text text-anchor="middle" x="397.0314" y="-162.3" font-family="Times-Roman" font-size="14.00" fill="#ffffff">/nix/var/nix/profiles/per&#45;user/coucou/profile&#45;1&#45;link (2.08 KiB)</text>
</g>
<!-- N2&#45;&gt;N5 -->
<g id="edge3" class="edge">
<title>N2&#45;&gt;N5</title>
<path fill="none" stroke="#000000" d="M699.9979,-185.0363C743.6837,-187.7812 786.5609,-190.4753 824.2859,-192.8457"/>
<polygon fill="#000000" stroke="#000000" points="824.073,-196.3392 834.2729,-193.4732 824.5121,-189.3529 824.073,-196.3392"/>
</g>
<!-- N3 -->
<g id="node4" class="node">
<title>N3</title>
<polygon fill="#0d24c0" stroke="#0d24c0" points="757.4037,-18.5442 757.4037,-33.4558 546.3025,-44 247.7602,-44 36.659,-33.4558 36.659,-18.5442 247.7602,-8 546.3025,-8 757.4037,-18.5442"/>
<polygon fill="none" stroke="#0d24c0" points="761.4057,-14.7391 761.4057,-37.2609 546.4024,-48 247.6603,-48 32.657,-37.2609 32.657,-14.7391 247.6603,-4 546.4024,-4 761.4057,-14.7391"/>
<polygon fill="none" stroke="#0d24c0" points="765.4078,-10.934 765.4078,-41.066 546.5023,-52 247.5604,-52 28.6549,-41.066 28.6549,-10.934 247.5604,0 546.5023,0 765.4078,-10.934"/>
<text text-anchor="middle" x="397.0314" y="-22.3" font-family="Times-Roman" font-size="14.00" fill="#ffffff">/nix/var/nix/profiles/per&#45;user/coucou/channels&#45;1&#45;link (53 B)</text>
</g>
<!-- N3&#45;&gt;N4 -->
<g id="edge4" class="edge">
<title>N3&#45;&gt;N4</title>
<path fill="none" stroke="#000000" d="M693.8944,-44.6528C737.9694,-47.4222 781.429,-50.1529 819.8325,-52.5659"/>
<polygon fill="#000000" stroke="#000000" points="819.8038,-56.0709 830.0036,-53.205 820.2428,-49.0847 819.8038,-56.0709"/>
</g>
</g>
</svg>
