<?xml version="1.0" encoding="UTF-8" standalone="no"?>
<!DOCTYPE svg PUBLIC "-//W3C//DTD SVG 1.1//EN"
 "http://www.w3.org/Graphics/SVG/1.1/DTD/svg11.dtd">
<!-- Generated by graphviz version 2.40.1 (0)
 -->
<!-- Title: nixstore Pages: 1 -->
<svg width="1361pt" height="340pt"
 viewBox="0.00 0.00 1361.06 340.00" xmlns="http://www.w3.org/2000/svg" xmlns:xlink="http://www.w3.org/1999/xlink">
<g id="graph0" class="graph" transform="scale(1 1) rotate(0) translate(4 336)">
<title>nixstore</title>
<polygon fill="#ffffff" stroke="transparent" points="-4,4 -4,-336 1357.0627,-336 1357.0627,4 -4,4"/>
<!-- N0 -->
<g id="node1" class="node">
<title>N0</title>
<polygon fill="#0d24c0" stroke="#0d24c0" points="745.4839,-88.5442 745.4839,-103.4558 541.3651,-114 252.6976,-114 48.5788,-103.4558 48.5788,-88.5442 252.6976,-78 541.3651,-78 745.4839,-88.5442"/>
<polygon fill="none" stroke="#0d24c0" points="749.4865,-84.7456 749.4865,-107.2544 541.4685,-118 252.5942,-118 44.5762,-107.2544 44.5762,-84.7456 252.5942,-74 541.4685,-74 749.4865,-84.7456"/>
<polygon fill="none" stroke="#0d24c0" points="753.4891,-80.947 753.4891,-111.053 541.5719,-122 252.4908,-122 40.5736,-111.053 40.5736,-80.947 252.4908,-70 541.5719,-70 753.4891,-80.947"/>
<text text-anchor="middle" x="397.0314" y="-92.3" font-family="Times-Roman" font-size="14.00" fill="#ffffff">/nix/var/nix/profiles/per&#45;user/root/channels&#45;1&#45;link (51 B)</text>
</g>
<!-- N5 -->
<g id="node6" class="node">
<title>N5</title>
<polygon fill="#8bff06" stroke="#8bff06" points="1078.0627,-79 830.0627,-79 830.0627,-43 1078.0627,-43 1078.0627,-79"/>
<text text-anchor="middle" x="954.0627" y="-57.3" font-family="Times-Roman" font-size="14.00" fill="#000000">user&#45;environment (52.42 MiB)</text>
</g>
<!-- N0&#45;&gt;N5 -->
<g id="edge1" class="edge">
<title>N0&#45;&gt;N5</title>
<path fill="none" stroke="#000000" d="M689.4133,-77.6287C735.0579,-74.7607 780.2046,-71.924 819.9335,-69.4278"/>
<polygon fill="#000000" stroke="#000000" points="820.1536,-72.9209 829.9144,-68.8006 819.7145,-65.9347 820.1536,-72.9209"/>
</g>
<!-- N1 -->
<g id="node2" class="node">
<title>N1</title>
<polygon fill="#0d24c0" stroke="#0d24c0" points="757.4037,-298.5442 757.4037,-313.4558 546.3025,-324 247.7602,-324 36.659,-313.4558 36.659,-298.5442 247.7602,-288 546.3025,-288 757.4037,-298.5442"/>
<polygon fill="none" stroke="#0d24c0" points="761.4057,-294.7391 761.4057,-317.2609 546.4024,-328 247.6603,-328 32.657,-317.2609 32.657,-294.7391 247.6603,-284 546.4024,-284 761.4057,-294.7391"/>
<polygon fill="none" stroke="#0d24c0" points="765.4078,-290.934 765.4078,-321.066 546.5023,-332 247.5604,-332 28.6549,-321.066 28.6549,-290.934 247.5604,-280 546.5023,-280 765.4078,-290.934"/>
<text text-anchor="middle" x="397.0314" y="-302.3" font-family="Times-Roman" font-size="14.00" fill="#ffffff">/nix/var/nix/profiles/per&#45;user/coucou/profile&#45;3&#45;link (900 B)</text>
</g>
<!-- N6 -->
<g id="node7" class="node">
<title>N6</title>
<polygon fill="#0ae57e" stroke="#0ae57e" points="1353.0627,-255 1114.0627,-255 1114.0627,-219 1353.0627,-219 1353.0627,-255"/>
<text text-anchor="middle" x="1233.5627" y="-233.3" font-family="Times-Roman" font-size="14.00" fill="#000000">nix&#45;index&#45;0.1.0 (27.05 MiB)</text>
</g>
<!-- N1&#45;&gt;N6 -->
<g id="edge3" class="edge">
<title>N1&#45;&gt;N6</title>
<path fill="none" stroke="#000000" d="M765.6018,-314.7163C867.4048,-311.9787 977.5076,-304.2089 1078.0627,-287 1112.467,-281.1121 1149.7352,-269.3274 1179.16,-258.6775"/>
<polygon fill="#000000" stroke="#000000" points="1180.6481,-261.8593 1188.8227,-255.1194 1178.2292,-255.2905 1180.6481,-261.8593"/>
</g>
<!-- N7 -->
<g id="node8" class="node">
<title>N7</title>
<polygon fill="#0d24c0" stroke="#0d24c0" points="1073.5627,-278 834.5627,-278 834.5627,-242 1073.5627,-242 1073.5627,-278"/>
<text text-anchor="middle" x="954.0627" y="-256.3" font-family="Times-Roman" font-size="14.00" fill="#ffffff">env&#45;manifest.nix (1.20 KiB)</text>
</g>
<!-- N1&#45;&gt;N7 -->
<g id="edge2" class="edge">
<title>N1&#45;&gt;N7</title>
<path fill="none" stroke="#000000" d="M649.8766,-285.1199C710.1438,-280.143 772.0279,-275.0325 824.1121,-270.7314"/>
<polygon fill="#000000" stroke="#000000" points="824.7168,-274.1935 834.3948,-269.8822 824.1407,-267.2172 824.7168,-274.1935"/>
</g>
<!-- N2 -->
<g id="node3" class="node">
<title>N2</title>
<polygon fill="#ff0000" stroke="#ff0000" points="786.0934,-158.5442 786.0934,-173.4558 558.1861,-184 235.8766,-184 7.9693,-173.4558 7.9693,-158.5442 235.8766,-148 558.1861,-148 786.0934,-158.5442"/>
<polygon fill="none" stroke="#ff0000" points="790.0938,-154.725 790.0938,-177.275 558.2786,-188 235.7841,-188 3.969,-177.275 3.969,-154.725 235.7841,-144 558.2786,-144 790.0938,-154.725"/>
<polygon fill="none" stroke="#ff0000" points="794.0941,-150.9057 794.0941,-181.0943 558.3711,-192 235.6916,-192 -.0314,-181.0943 -.0314,-150.9057 235.6916,-140 558.3711,-140 794.0941,-150.9057"/>
<text text-anchor="middle" x="397.0314" y="-162.3" font-family="Times-Roman" font-size="14.00" fill="#000000">/nix/var/nix/profiles/per&#45;user/coucou/profile&#45;2&#45;link (137.18 MiB)</text>
</g>
<!-- N2&#45;&gt;N6 -->
<g id="edge4" class="edge">
<title>N2&#45;&gt;N6</title>
<path fill="none" stroke="#000000" d="M652.2791,-187.664C801.6124,-200.3385 983.8123,-215.8026 1103.9668,-226.0006"/>
<polygon fill="#000000" stroke="#000000" points="1103.6909,-229.4897 1113.9511,-226.8481 1104.283,-222.5148 1103.6909,-229.4897"/>
</g>
<!-- N3 -->
<g id="node4" class="node">
<title>N3</title>
<polygon fill="#0d24c0" stroke="#0d24c0" points="757.4037,-228.5442 757.4037,-243.4558 546.3025,-254 247.7602,-254 36.659,-243.4558 36.659,-228.5442 247.7602,-218 546.3025,-218 757.4037,-228.5442"/>
<polygon fill="none" stroke="#0d24c0" points="761.4057,-224.7391 761.4057,-247.2609 546.4024,-258 247.6603,-258 32.657,-247.2609 32.657,-224.7391 247.6603,-214 546.4024,-214 761.4057,-224.7391"/>
<polygon fill="none" stroke="#0d24c0" points="765.4078,-220.934 765.4078,-251.066 546.5023,-262 247.5604,-262 28.6549,-251.066 28.6549,-220.934 247.5604,-210 546.5023,-210 765.4078,-220.934"/>
<text text-anchor="middle" x="397.0314" y="-232.3" font-family="Times-Roman" font-size="14.00" fill="#ffffff">/nix/var/nix/profiles/per&#45;user/coucou/profile&#45;1&#45;link (900 B)</text>
</g>
<!-- N3&#45;&gt;N6 -->
<g id="edge6" class="edge">
<title>N3&#45;&gt;N6</title>
<path fill="none" stroke="#000000" d="M765.5068,-232.0545C866.8101,-231.6026 976.6839,-231.6963 1078.0627,-233 1086.4084,-233.1073 1095.0054,-233.247 1103.6714,-233.4097"/>
<polygon fill="#000000" stroke="#000000" points="1103.7982,-236.9128 1113.8653,-233.6108 1103.9363,-229.9142 1103.7982,-236.9128"/>
</g>
<!-- N3&#45;&gt;N7 -->
<g id="edge5" class="edge">
<title>N3&#45;&gt;N7</title>
<path fill="none" stroke="#000000" d="M756.8904,-251.5047C780.4234,-252.5187 803.1071,-253.496 824.1845,-254.4041"/>
<polygon fill="#000000" stroke="#000000" points="824.2578,-257.9104 834.3992,-254.8442 824.5591,-250.9169 824.2578,-257.9104"/>
</g>
<!-- N4 -->
<g id="node5" class="node">
<title>N4</title>
<polygon fill="#0d24c0" stroke="#0d24c0" points="757.4037,-18.5442 757.4037,-33.4558 546.3025,-44 247.7602,-44 36.659,-33.4558 36.659,-18.5442 247.7602,-8 546.3025,-8 757.4037,-18.5442"/>
<polygon fill="none" stroke="#0d24c0" points="761.4057,-14.7391 761.4057,-37.2609 546.4024,-48 247.6603,-48 32.657,-37.2609 32.657,-14.7391 247.6603,-4 546.4024,-4 761.4057,-14.7391"/>
<polygon fill="none" stroke="#0d24c0" points="765.4078,-10.934 765.4078,-41.066 546.5023,-52 247.5604,-52 28.6549,-41.066 28.6549,-10.934 247.5604,0 546.5023,0 765.4078,-10.934"/>
<text text-anchor="middle" x="397.0314" y="-22.3" font-family="Times-Roman" font-size="14.00" fill="#ffffff">/nix/var/nix/profiles/per&#45;user/coucou/channels&#45;1&#45;link (53 B)</text>
</g>
<!-- N4&#45;&gt;N5 -->
<g id="edge7" class="edge">
<title>N4&#45;&gt;N5</title>
<path fill="none" stroke="#000000" d="M693.8944,-44.6528C737.9694,-47.4222 781.429,-50.1529 819.8325,-52.5659"/>
<polygon fill="#000000" stroke="#000000" points="819.8038,-56.0709 830.0036,-53.205 820.2428,-49.0847 819.8038,-56.0709"/>
</g>
<!-- N7&#45;&gt;N6 -->
<g id="edge8" class="edge">
<title>N7&#45;&gt;N6</title>
<path fill="none" stroke="#000000" d="M1073.8122,-250.1458C1083.8134,-249.3228 1093.9542,-248.4884 1104.0238,-247.6597"/>
<polygon fill="#000000" stroke="#000000" points="1104.3828,-251.1421 1114.062,-246.8337 1103.8086,-244.1657 1104.3828,-251.1421"/>
</g>
</g>
</svg>
