<?xml version="1.0" encoding="UTF-8" standalone="no"?>
<!DOCTYPE svg PUBLIC "-//W3C//DTD SVG 1.1//EN"
 "http://www.w3.org/Graphics/SVG/1.1/DTD/svg11.dtd">
<!-- Generated by graphviz version 2.40.1 (0)
 -->
<!-- Title: nixstore Pages: 1 -->
<svg width="995pt" height="410pt"
 viewBox="0.00 0.00 994.70 410.00" xmlns="http://www.w3.org/2000/svg" xmlns:xlink="http://www.w3.org/1999/xlink">
<g id="graph0" class="graph" transform="scale(1 1) rotate(0) translate(4 406)">
<title>nixstore</title>
<polygon fill="#ffffff" stroke="transparent" points="-4,4 -4,-406 990.6979,-406 990.6979,4 -4,4"/>
<!-- N1 -->
<g id="node1" class="node">
<title>N1</title>
<polygon fill="#0d24c0" stroke="#0d24c0" points="420.0241,-368.5442 420.0241,-383.4558 321.4577,-394 182.0637,-394 83.4973,-383.4558 83.4973,-368.5442 182.0637,-358 321.4577,-358 420.0241,-368.5442"/>
<polygon fill="none" stroke="#0d24c0" points="424.0271,-364.9495 424.0271,-387.0505 321.6713,-398 181.85,-398 79.4942,-387.0505 79.4942,-364.9495 181.85,-354 321.6713,-354 424.0271,-364.9495"/>
<polygon fill="none" stroke="#0d24c0" points="428.0302,-361.3549 428.0302,-390.6451 321.885,-402 181.6364,-402 75.4911,-390.6451 75.4911,-361.3549 181.6364,-350 321.885,-350 428.0302,-361.3549"/>
<text text-anchor="middle" x="251.7607" y="-372.3" font-family="Times-Roman" font-size="14.00" fill="#ffffff">env&#45;manifest.nix (5.55 KiB)</text>
</g>
<!-- N2 -->
<g id="node2" class="node">
<title>N2</title>
<polygon fill="#0bdfaa" stroke="#0bdfaa" points="408.5243,-18.5442 408.5243,-33.4558 316.6943,-44 186.8271,-44 94.997,-33.4558 94.997,-18.5442 186.8271,-8 316.6943,-8 408.5243,-18.5442"/>
<polygon fill="none" stroke="#0bdfaa" points="412.5214,-14.9769 412.5214,-37.0231 316.9228,-48 186.5985,-48 91,-37.0231 91,-14.9769 186.5985,-4 316.9228,-4 412.5214,-14.9769"/>
<polygon fill="none" stroke="#0bdfaa" points="416.5184,-11.4096 416.5184,-40.5904 317.1514,-52 186.3699,-52 87.0029,-40.5904 87.0029,-11.4096 186.3699,0 317.1514,0 416.5184,-11.4096"/>
<text text-anchor="middle" x="251.7607" y="-22.3" font-family="Times-Roman" font-size="14.00" fill="#000000">python3&#45;3.6.6 (56.38 MiB)</text>
</g>
<!-- N1&#45;&gt;N2 -->
<g id="edge1" class="edge">
<title>N1&#45;&gt;N2</title>
<path fill="none" stroke="#000000" d="M75.3661,-376.401C51.4392,-367.9743 30.4585,-354.0621 16.8234,-332 1.5188,-307.2366 1.5188,-94.7634 16.8234,-70 30.8,-47.3853 52.4948,-33.3339 77.1694,-24.9761"/>
<polygon fill="#000000" stroke="#000000" points="78.2211,-28.3146 86.7622,-22.0456 76.176,-21.62 78.2211,-28.3146"/>
</g>
<!-- N3 -->
<g id="node3" class="node">
<title>N3</title>
<polygon fill="#ff0000" stroke="#ff0000" points="460.6376,-88.5442 460.6376,-103.4558 338.2803,-114 165.241,-114 42.8838,-103.4558 42.8838,-88.5442 165.241,-78 338.2803,-78 460.6376,-88.5442"/>
<polygon fill="none" stroke="#ff0000" points="464.6364,-84.8739 464.6364,-107.1261 338.4522,-118 165.0691,-118 38.8849,-107.1261 38.8849,-84.8739 165.0691,-74 338.4522,-74 464.6364,-84.8739"/>
<polygon fill="none" stroke="#ff0000" points="468.6352,-81.2037 468.6352,-110.7963 338.6242,-122 164.8972,-122 34.8861,-110.7963 34.8861,-81.2037 164.8972,-70 338.6242,-70 468.6352,-81.2037"/>
<text text-anchor="middle" x="251.7607" y="-92.3" font-family="Times-Roman" font-size="14.00" fill="#000000">tamarin&#45;prover&#45;1.5.0b (342.58 MiB)</text>
</g>
<!-- N1&#45;&gt;N3 -->
<g id="edge2" class="edge">
<title>N1&#45;&gt;N3</title>
<path fill="none" stroke="#000000" d="M75.3661,-376.401C51.4392,-367.9743 30.4585,-354.0621 16.8234,-332 -5.6078,-295.7056 -5.6078,-176.2944 16.8234,-140 22.0303,-131.575 28.3084,-124.3386 35.4127,-118.1422"/>
<polygon fill="#000000" stroke="#000000" points="37.7471,-120.7588 43.4343,-111.8197 33.414,-115.2611 37.7471,-120.7588"/>
</g>
<!-- N4 -->
<g id="node4" class="node">
<title>N4</title>
<polygon fill="#0ae388" stroke="#0ae388" points="385.5788,-158.5442 385.5788,-173.4558 307.1899,-184 196.3314,-184 117.9426,-173.4558 117.9426,-158.5442 196.3314,-148 307.1899,-148 385.5788,-158.5442"/>
<polygon fill="none" stroke="#0ae388" points="389.5834,-155.0467 389.5834,-176.9533 307.4584,-188 196.063,-188 113.938,-176.9533 113.938,-155.0467 196.063,-144 307.4584,-144 389.5834,-155.0467"/>
<polygon fill="none" stroke="#0ae388" points="393.588,-151.5493 393.588,-180.4507 307.7268,-192 195.7945,-192 109.9333,-180.4507 109.9333,-151.5493 195.7945,-140 307.7268,-140 393.588,-151.5493"/>
<text text-anchor="middle" x="251.7607" y="-162.3" font-family="Times-Roman" font-size="14.00" fill="#000000">nix&#45;2.1.3 (65.01 MiB)</text>
</g>
<!-- N1&#45;&gt;N4 -->
<g id="edge3" class="edge">
<title>N1&#45;&gt;N4</title>
<path fill="none" stroke="#000000" d="M75.3661,-376.401C51.4392,-367.9743 30.4585,-354.0621 16.8234,-332 2.5702,-308.9379 2.5702,-233.0621 16.8234,-210 34.9421,-180.6833 66.0316,-165.7575 99.7688,-158.9708"/>
<polygon fill="#000000" stroke="#000000" points="100.589,-162.3802 109.8271,-157.1929 99.3705,-155.487 100.589,-162.3802"/>
</g>
<!-- N5 -->
<g id="node5" class="node">
<title>N5</title>
<polygon fill="#0d2fc1" stroke="#0d2fc1" points="385.5788,-228.5442 385.5788,-243.4558 307.1899,-254 196.3314,-254 117.9426,-243.4558 117.9426,-228.5442 196.3314,-218 307.1899,-218 385.5788,-228.5442"/>
<polygon fill="none" stroke="#0d2fc1" points="389.5834,-225.0467 389.5834,-246.9533 307.4584,-258 196.063,-258 113.938,-246.9533 113.938,-225.0467 196.063,-214 307.4584,-214 389.5834,-225.0467"/>
<polygon fill="none" stroke="#0d2fc1" points="393.588,-221.5493 393.588,-250.4507 307.7268,-262 195.7945,-262 109.9333,-250.4507 109.9333,-221.5493 195.7945,-210 307.7268,-210 393.588,-221.5493"/>
<text text-anchor="middle" x="251.7607" y="-232.3" font-family="Times-Roman" font-size="14.00" fill="#ffffff">lnav&#45;0.8.4 (3.26 MiB)</text>
</g>
<!-- N1&#45;&gt;N5 -->
<g id="edge4" class="edge">
<title>N1&#45;&gt;N5</title>
<path fill="none" stroke="#000000" d="M75.3661,-376.401C51.4392,-367.9743 30.4585,-354.0621 16.8234,-332 4.6732,-312.3405 4.6732,-299.6595 16.8234,-280 34.9421,-250.6833 66.0316,-235.7575 99.7688,-228.9708"/>
<polygon fill="#000000" stroke="#000000" points="100.589,-232.3802 109.8271,-227.1929 99.3705,-225.487 100.589,-232.3802"/>
</g>
<!-- N6 -->
<g id="node6" class="node">
<title>N6</title>
<polygon fill="#0c76cb" stroke="#0c76cb" points="402.7753,-298.5442 402.7753,-313.4558 314.313,-324 189.2083,-324 100.746,-313.4558 100.746,-298.5442 189.2083,-288 314.313,-288 402.7753,-298.5442"/>
<polygon fill="none" stroke="#0c76cb" points="406.7691,-294.992 406.7691,-317.008 314.5498,-328 188.9715,-328 96.7523,-317.008 96.7523,-294.992 188.9715,-284 314.5498,-284 406.7691,-294.992"/>
<polygon fill="none" stroke="#0c76cb" points="410.7628,-291.4398 410.7628,-320.5602 314.7866,-332 188.7347,-332 92.7585,-320.5602 92.7585,-291.4398 188.7347,-280 314.7866,-280 410.7628,-291.4398"/>
<text text-anchor="middle" x="251.7607" y="-302.3" font-family="Times-Roman" font-size="14.00" fill="#ffffff">nix&#45;du&#45;0.2.0 (21.37 MiB)</text>
</g>
<!-- N1&#45;&gt;N6 -->
<g id="edge5" class="edge">
<title>N1&#45;&gt;N6</title>
<path fill="none" stroke="#000000" d="M251.7607,-349.6816C251.7607,-347.2303 251.7607,-344.779 251.7607,-342.3277"/>
<polygon fill="#000000" stroke="#000000" points="255.2608,-342.25 251.7607,-332.25 248.2608,-342.25 255.2608,-342.25"/>
</g>
<!-- N8 -->
<g id="node7" class="node">
<title>N8</title>
<polygon fill="#0d31c1" stroke="#0d31c1" points="715.1979,-181 517.1979,-181 517.1979,-145 715.1979,-145 715.1979,-181"/>
<text text-anchor="middle" x="616.1979" y="-159.3" font-family="Times-Roman" font-size="14.00" fill="#ffffff">ncurses&#45;6.1 (3.57 MiB)</text>
</g>
<!-- N2&#45;&gt;N8 -->
<g id="edge6" class="edge">
<title>N2&#45;&gt;N8</title>
<path fill="none" stroke="#000000" d="M405.2285,-41.9811C426.9637,-46.7566 448.7009,-52.9552 468.6979,-61 514.7042,-79.5083 560.5603,-114.4704 588.6438,-138.2472"/>
<polygon fill="#000000" stroke="#000000" points="586.559,-141.0705 596.4239,-144.9349 591.122,-135.7621 586.559,-141.0705"/>
</g>
<!-- N9 -->
<g id="node8" class="node">
<title>N9</title>
<polygon fill="#0d2bc1" stroke="#0d2bc1" points="727.6979,-235 504.6979,-235 504.6979,-199 727.6979,-199 727.6979,-235"/>
<text text-anchor="middle" x="616.1979" y="-213.3" font-family="Times-Roman" font-size="14.00" fill="#ffffff">coreutils&#45;8.30 (2.10 MiB)</text>
</g>
<!-- N2&#45;&gt;N9 -->
<g id="edge7" class="edge">
<title>N2&#45;&gt;N9</title>
<path fill="none" stroke="#000000" d="M416.7583,-31.8875C435.8313,-38.3098 453.7638,-47.6539 468.6979,-61 513.0813,-100.6639 461.887,-148.6439 504.6979,-190 505.6649,-190.9341 506.6583,-191.8376 507.6762,-192.7117"/>
<polygon fill="#000000" stroke="#000000" points="505.8129,-195.6879 515.9248,-198.8502 509.992,-190.0722 505.8129,-195.6879"/>
</g>
<!-- N5&#45;&gt;N8 -->
<g id="edge8" class="edge">
<title>N5&#45;&gt;N8</title>
<path fill="none" stroke="#000000" d="M375.3745,-219.0503C406.0299,-214.0261 438.691,-207.9706 468.6979,-201 484.9943,-197.2144 488.5608,-194.4151 504.6979,-190 512.6375,-187.8277 520.9195,-185.6532 529.2265,-183.5337"/>
<polygon fill="#000000" stroke="#000000" points="530.1312,-186.9152 538.9706,-181.0743 528.4181,-180.128 530.1312,-186.9152"/>
</g>
<!-- N10 -->
<g id="node9" class="node">
<title>N10</title>
<polygon fill="#0d43c4" stroke="#0d43c4" points="715.1979,-289 517.1979,-289 517.1979,-253 715.1979,-253 715.1979,-289"/>
<text text-anchor="middle" x="616.1979" y="-267.3" font-family="Times-Roman" font-size="14.00" fill="#ffffff">curl&#45;7.61.1 (8.57 MiB)</text>
</g>
<!-- N5&#45;&gt;N10 -->
<g id="edge9" class="edge">
<title>N5&#45;&gt;N10</title>
<path fill="none" stroke="#000000" d="M393.4442,-249.6071C431.0279,-253.2166 471.0351,-257.0588 506.6222,-260.4765"/>
<polygon fill="#000000" stroke="#000000" points="506.7362,-264.0035 517.025,-261.4756 507.4054,-257.0355 506.7362,-264.0035"/>
</g>
<!-- N6&#45;&gt;N9 -->
<g id="edge10" class="edge">
<title>N6&#45;&gt;N9</title>
<path fill="none" stroke="#000000" d="M405.5172,-290.7172C427.2107,-285.8408 448.8594,-279.4281 468.6979,-271 487.1057,-263.1798 486.6075,-252.5286 504.6979,-244 508.8119,-242.0605 513.0792,-240.2522 517.4396,-238.567"/>
<polygon fill="#000000" stroke="#000000" points="518.896,-241.7623 527.111,-235.0717 516.5167,-235.1791 518.896,-241.7623"/>
</g>
<!-- N6&#45;&gt;N10 -->
<g id="edge11" class="edge">
<title>N6&#45;&gt;N10</title>
<path fill="none" stroke="#000000" d="M407.6364,-291.0299C441.1304,-287.8132 475.8375,-284.48 507.1015,-281.4775"/>
<polygon fill="#000000" stroke="#000000" points="507.5057,-284.9548 517.1253,-280.5148 506.8365,-277.9869 507.5057,-284.9548"/>
</g>
<!-- N7 -->
<g id="node10" class="node">
<title>N7</title>
<polygon fill="#0c99d0" stroke="#0c99d0" points="986.6979,-235 763.6979,-235 763.6979,-199 986.6979,-199 986.6979,-235"/>
<text text-anchor="middle" x="875.1979" y="-213.3" font-family="Times-Roman" font-size="14.00" fill="#000000">sqlite&#45;3.24.0 (29.77 MiB)</text>
</g>
<!-- N8&#45;&gt;N7 -->
<g id="edge12" class="edge">
<title>N8&#45;&gt;N7</title>
<path fill="none" stroke="#000000" d="M702.8013,-181.0563C727.2081,-186.145 753.9068,-191.7115 778.8468,-196.9113"/>
<polygon fill="#000000" stroke="#000000" points="778.1723,-200.3459 788.6762,-198.9607 779.6011,-193.4933 778.1723,-200.3459"/>
</g>
<!-- N9&#45;&gt;N7 -->
<g id="edge13" class="edge">
<title>N9&#45;&gt;N7</title>
<path fill="none" stroke="#000000" d="M727.9165,-217C736.2873,-217 744.7591,-217 753.1885,-217"/>
<polygon fill="#000000" stroke="#000000" points="753.4398,-220.5001 763.4397,-217 753.4397,-213.5001 753.4398,-220.5001"/>
</g>
<!-- N10&#45;&gt;N7 -->
<g id="edge14" class="edge">
<title>N10&#45;&gt;N7</title>
<path fill="none" stroke="#000000" d="M702.8013,-252.9437C727.2081,-247.855 753.9068,-242.2885 778.8468,-237.0887"/>
<polygon fill="#000000" stroke="#000000" points="779.6011,-240.5067 788.6762,-235.0393 778.1723,-233.6541 779.6011,-240.5067"/>
</g>
</g>
</svg>
