<?xml version="1.0" encoding="UTF-8" standalone="no"?>
<!DOCTYPE svg PUBLIC "-//W3C//DTD SVG 1.1//EN"
 "http://www.w3.org/Graphics/SVG/1.1/DTD/svg11.dtd">
<!-- Generated by graphviz version 2.40.1 (0)
 -->
<!-- Title: nixstore Pages: 1 -->
<svg width="995pt" height="480pt"
 viewBox="0.00 0.00 994.70 480.00" xmlns="http://www.w3.org/2000/svg" xmlns:xlink="http://www.w3.org/1999/xlink">
<g id="graph0" class="graph" transform="scale(1 1) rotate(0) translate(4 476)">
<title>nixstore</title>
<polygon fill="#ffffff" stroke="transparent" points="-4,4 -4,-476 990.6979,-476 990.6979,4 -4,4"/>
<!-- N1 -->
<g id="node1" class="node">
<title>N1</title>
<polygon fill="#0d24c0" stroke="#0d24c0" points="420.0241,-438.5442 420.0241,-453.4558 321.4577,-464 182.0637,-464 83.4973,-453.4558 83.4973,-438.5442 182.0637,-428 321.4577,-428 420.0241,-438.5442"/>
<polygon fill="none" stroke="#0d24c0" points="424.0271,-434.9495 424.0271,-457.0505 321.6713,-468 181.85,-468 79.4942,-457.0505 79.4942,-434.9495 181.85,-424 321.6713,-424 424.0271,-434.9495"/>
<polygon fill="none" stroke="#0d24c0" points="428.0302,-431.3549 428.0302,-460.6451 321.885,-472 181.6364,-472 75.4911,-460.6451 75.4911,-431.3549 181.6364,-420 321.885,-420 428.0302,-431.3549"/>
<text text-anchor="middle" x="251.7607" y="-442.3" font-family="Times-Roman" font-size="14.00" fill="#ffffff">env&#45;manifest.nix (6.59 KiB)</text>
</g>
<!-- N2 -->
<g id="node2" class="node">
<title>N2</title>
<polygon fill="#0bdfaa" stroke="#0bdfaa" points="408.5243,-18.5442 408.5243,-33.4558 316.6943,-44 186.8271,-44 94.997,-33.4558 94.997,-18.5442 186.8271,-8 316.6943,-8 408.5243,-18.5442"/>
<polygon fill="none" stroke="#0bdfaa" points="412.5214,-14.9769 412.5214,-37.0231 316.9228,-48 186.5985,-48 91,-37.0231 91,-14.9769 186.5985,-4 316.9228,-4 412.5214,-14.9769"/>
<polygon fill="none" stroke="#0bdfaa" points="416.5184,-11.4096 416.5184,-40.5904 317.1514,-52 186.3699,-52 87.0029,-40.5904 87.0029,-11.4096 186.3699,0 317.1514,0 416.5184,-11.4096"/>
<text text-anchor="middle" x="251.7607" y="-22.3" font-family="Times-Roman" font-size="14.00" fill="#000000">python3&#45;3.6.6 (56.38 MiB)</text>
</g>
<!-- N1&#45;&gt;N2 -->
<g id="edge1" class="edge">
<title>N1&#45;&gt;N2</title>
<path fill="none" stroke="#000000" d="M75.3661,-446.401C51.4392,-437.9743 30.4585,-424.0621 16.8234,-402 -2.5702,-370.6204 -2.5702,-101.3796 16.8234,-70 30.8,-47.3853 52.4948,-33.3339 77.1694,-24.9761"/>
<polygon fill="#000000" stroke="#000000" points="78.2211,-28.3146 86.7622,-22.0456 76.176,-21.62 78.2211,-28.3146"/>
</g>
<!-- N3 -->
<g id="node3" class="node">
<title>N3</title>
<polygon fill="#ff0000" stroke="#ff0000" points="460.6376,-88.5442 460.6376,-103.4558 338.2803,-114 165.241,-114 42.8838,-103.4558 42.8838,-88.5442 165.241,-78 338.2803,-78 460.6376,-88.5442"/>
<polygon fill="none" stroke="#ff0000" points="464.6364,-84.8739 464.6364,-107.1261 338.4522,-118 165.0691,-118 38.8849,-107.1261 38.8849,-84.8739 165.0691,-74 338.4522,-74 464.6364,-84.8739"/>
<polygon fill="none" stroke="#ff0000" points="468.6352,-81.2037 468.6352,-110.7963 338.6242,-122 164.8972,-122 34.8861,-110.7963 34.8861,-81.2037 164.8972,-70 338.6242,-70 468.6352,-81.2037"/>
<text text-anchor="middle" x="251.7607" y="-92.3" font-family="Times-Roman" font-size="14.00" fill="#000000">tamarin&#45;prover&#45;1.5.0b (342.58 MiB)</text>
</g>
<!-- N1&#45;&gt;N3 -->
<g id="edge2" class="edge">
<title>N1&#45;&gt;N3</title>
<path fill="none" stroke="#000000" d="M75.3661,-446.401C51.4392,-437.9743 30.4585,-424.0621 16.8234,-402 1.5188,-377.2366 1.5188,-164.7634 16.8234,-140 22.0303,-131.575 28.3084,-124.3386 35.4127,-118.1422"/>
<polygon fill="#000000" stroke="#000000" points="37.7471,-120.7588 43.4343,-111.8197 33.414,-115.2611 37.7471,-120.7588"/>
</g>
<!-- N5 -->
<g id="node5" class="node">
<title>N5</title>
<polygon fill="#0d2fc1" stroke="#0d2fc1" points="385.5788,-158.5442 385.5788,-173.4558 307.1899,-184 196.3314,-184 117.9426,-173.4558 117.9426,-158.5442 196.3314,-148 307.1899,-148 385.5788,-158.5442"/>
<polygon fill="none" stroke="#0d2fc1" points="389.5834,-155.0467 389.5834,-176.9533 307.4584,-188 196.063,-188 113.938,-176.9533 113.938,-155.0467 196.063,-144 307.4584,-144 389.5834,-155.0467"/>
<polygon fill="none" stroke="#0d2fc1" points="393.588,-151.5493 393.588,-180.4507 307.7268,-192 195.7945,-192 109.9333,-180.4507 109.9333,-151.5493 195.7945,-140 307.7268,-140 393.588,-151.5493"/>
<text text-anchor="middle" x="251.7607" y="-162.3" font-family="Times-Roman" font-size="14.00" fill="#ffffff">lnav&#45;0.8.4 (3.26 MiB)</text>
</g>
<!-- N1&#45;&gt;N5 -->
<g id="edge3" class="edge">
<title>N1&#45;&gt;N5</title>
<path fill="none" stroke="#000000" d="M75.3661,-446.401C51.4392,-437.9743 30.4585,-424.0621 16.8234,-402 -5.6078,-365.7056 -5.6078,-246.2944 16.8234,-210 34.9421,-180.6833 66.0316,-165.7575 99.7688,-158.9708"/>
<polygon fill="#000000" stroke="#000000" points="100.589,-162.3802 109.8271,-157.1929 99.3705,-155.487 100.589,-162.3802"/>
</g>
<!-- N7 -->
<g id="node7" class="node">
<title>N7</title>
<polygon fill="#0d28c0" stroke="#0d28c0" points="396.6038,-368.5442 396.6038,-383.4558 311.7567,-394 191.7647,-394 106.9175,-383.4558 106.9175,-368.5442 191.7647,-358 311.7567,-358 396.6038,-368.5442"/>
<polygon fill="none" stroke="#0d28c0" points="400.6017,-365.0102 400.6017,-386.9898 312.004,-398 191.5173,-398 102.9196,-386.9898 102.9196,-365.0102 191.5173,-354 312.004,-354 400.6017,-365.0102"/>
<polygon fill="none" stroke="#0d28c0" points="404.5996,-361.4763 404.5996,-390.5237 312.2513,-402 191.27,-402 98.9217,-390.5237 98.9217,-361.4763 191.27,-350 312.2513,-350 404.5996,-361.4763"/>
<text text-anchor="middle" x="251.7607" y="-372.3" font-family="Times-Roman" font-size="14.00" fill="#ffffff">nix&#45;du&#45;0.2.0 (1.37 MiB)</text>
</g>
<!-- N1&#45;&gt;N7 -->
<g id="edge4" class="edge">
<title>N1&#45;&gt;N7</title>
<path fill="none" stroke="#000000" d="M251.7607,-419.6816C251.7607,-417.2303 251.7607,-414.779 251.7607,-412.3277"/>
<polygon fill="#000000" stroke="#000000" points="255.2608,-412.25 251.7607,-402.25 248.2608,-412.25 255.2608,-412.25"/>
</g>
<!-- N9 -->
<g id="node8" class="node">
<title>N9</title>
<polygon fill="#0d31c1" stroke="#0d31c1" points="715.1979,-130 517.1979,-130 517.1979,-94 715.1979,-94 715.1979,-130"/>
<text text-anchor="middle" x="616.1979" y="-108.3" font-family="Times-Roman" font-size="14.00" fill="#ffffff">ncurses&#45;6.1 (3.57 MiB)</text>
</g>
<!-- N2&#45;&gt;N9 -->
<g id="edge5" class="edge">
<title>N2&#45;&gt;N9</title>
<path fill="none" stroke="#000000" d="M386.7397,-44.0649C414.0457,-48.758 442.4299,-54.3926 468.6979,-61 499.8424,-68.8341 533.7658,-80.3463 561.2187,-90.4514"/>
<polygon fill="#000000" stroke="#000000" points="560.0513,-93.7515 570.6441,-93.9587 562.4926,-87.1909 560.0513,-93.7515"/>
</g>
<!-- N10 -->
<g id="node9" class="node">
<title>N10</title>
<polygon fill="#0d2bc1" stroke="#0d2bc1" points="727.6979,-184 504.6979,-184 504.6979,-148 727.6979,-148 727.6979,-184"/>
<text text-anchor="middle" x="616.1979" y="-162.3" font-family="Times-Roman" font-size="14.00" fill="#ffffff">coreutils&#45;8.30 (2.10 MiB)</text>
</g>
<!-- N2&#45;&gt;N10 -->
<g id="edge6" class="edge">
<title>N2&#45;&gt;N10</title>
<path fill="none" stroke="#000000" d="M416.7596,-34.8478C435.4419,-40.8565 453.2753,-49.2957 468.6979,-61 499.1122,-84.0814 475.2022,-114.7559 504.6979,-139 506.0996,-140.1521 507.5426,-141.2563 509.0224,-142.3147"/>
<polygon fill="#000000" stroke="#000000" points="507.5397,-145.5174 517.8658,-147.8886 511.2722,-139.5955 507.5397,-145.5174"/>
</g>
<!-- N4 -->
<g id="node4" class="node">
<title>N4</title>
<polygon fill="#0c70ca" stroke="#0c70ca" points="385.5788,-298.5442 385.5788,-313.4558 307.1899,-324 196.3314,-324 117.9426,-313.4558 117.9426,-298.5442 196.3314,-288 307.1899,-288 385.5788,-298.5442"/>
<polygon fill="none" stroke="#0c70ca" points="389.5834,-295.0467 389.5834,-316.9533 307.4584,-328 196.063,-328 113.938,-316.9533 113.938,-295.0467 196.063,-284 307.4584,-284 389.5834,-295.0467"/>
<polygon fill="none" stroke="#0c70ca" points="393.588,-291.5493 393.588,-320.4507 307.7268,-332 195.7945,-332 109.9333,-320.4507 109.9333,-291.5493 195.7945,-280 307.7268,-280 393.588,-291.5493"/>
<text text-anchor="middle" x="251.7607" y="-302.3" font-family="Times-Roman" font-size="14.00" fill="#ffffff">nix&#45;2.1.3 (19.93 MiB)</text>
</g>
<!-- N6 -->
<g id="node6" class="node">
<title>N6</title>
<polygon fill="#0d24c0" stroke="#0d24c0" points="408.5243,-228.5442 408.5243,-243.4558 316.6943,-254 186.8271,-254 94.997,-243.4558 94.997,-228.5442 186.8271,-218 316.6943,-218 408.5243,-228.5442"/>
<polygon fill="none" stroke="#0d24c0" points="412.5214,-224.9769 412.5214,-247.0231 316.9228,-258 186.5985,-258 91,-247.0231 91,-224.9769 186.5985,-214 316.9228,-214 412.5214,-224.9769"/>
<polygon fill="none" stroke="#0d24c0" points="416.5184,-221.4096 416.5184,-250.5904 317.1514,-262 186.3699,-262 87.0029,-250.5904 87.0029,-221.4096 186.3699,-210 317.1514,-210 416.5184,-221.4096"/>
<text text-anchor="middle" x="251.7607" y="-232.3" font-family="Times-Roman" font-size="14.00" fill="#ffffff">nix&#45;2.1.3&#45;man (67.41 KiB)</text>
</g>
<!-- N4&#45;&gt;N6 -->
<g id="edge7" class="edge">
<title>N4&#45;&gt;N6</title>
<path fill="none" stroke="#000000" d="M251.7607,-279.6816C251.7607,-277.2303 251.7607,-274.779 251.7607,-272.3277"/>
<polygon fill="#000000" stroke="#000000" points="255.2608,-272.25 251.7607,-262.25 248.2608,-272.25 255.2608,-272.25"/>
</g>
<!-- N4&#45;&gt;N10 -->
<g id="edge8" class="edge">
<title>N4&#45;&gt;N10</title>
<path fill="none" stroke="#000000" d="M393.5249,-303.3606C420.4558,-297.4987 446.9695,-287.4898 468.6979,-271 499.1122,-247.9186 475.2022,-217.2441 504.6979,-193 506.0996,-191.8479 507.5426,-190.7437 509.0224,-189.6853"/>
<polygon fill="#000000" stroke="#000000" points="511.2722,-192.4045 517.8658,-184.1114 507.5397,-186.4826 511.2722,-192.4045"/>
</g>
<!-- N11 -->
<g id="node10" class="node">
<title>N11</title>
<polygon fill="#0d43c4" stroke="#0d43c4" points="723.6979,-238 508.6979,-238 508.6979,-202 723.6979,-202 723.6979,-238"/>
<text text-anchor="middle" x="616.1979" y="-216.3" font-family="Times-Roman" font-size="14.00" fill="#ffffff">gcc&#45;7.3.0&#45;lib (8.57 MiB)</text>
</g>
<!-- N4&#45;&gt;N11 -->
<g id="edge9" class="edge">
<title>N4&#45;&gt;N11</title>
<path fill="none" stroke="#000000" d="M378.1262,-289.3909C408.0254,-284.4215 439.6551,-278.3054 468.6979,-271 499.8424,-263.1659 533.7658,-251.6537 561.2187,-241.5486"/>
<polygon fill="#000000" stroke="#000000" points="562.4926,-244.8091 570.6441,-238.0413 560.0513,-238.2485 562.4926,-244.8091"/>
</g>
<!-- N5&#45;&gt;N9 -->
<g id="edge10" class="edge">
<title>N5&#45;&gt;N9</title>
<path fill="none" stroke="#000000" d="M370.5868,-148.3931C414.5233,-141.8829 464.0771,-134.5403 507.1077,-128.1643"/>
<polygon fill="#000000" stroke="#000000" points="507.6599,-131.6208 517.0389,-126.6928 506.6338,-124.6964 507.6599,-131.6208"/>
</g>
<!-- N5&#45;&gt;N11 -->
<g id="edge11" class="edge">
<title>N5&#45;&gt;N11</title>
<path fill="none" stroke="#000000" d="M370.5868,-183.6069C411.6518,-189.6917 457.6238,-196.5035 498.5907,-202.5737"/>
<polygon fill="#000000" stroke="#000000" points="498.2114,-206.0556 508.6165,-204.0593 499.2375,-199.1312 498.2114,-206.0556"/>
</g>
<!-- N7&#45;&gt;N4 -->
<g id="edge12" class="edge">
<title>N7&#45;&gt;N4</title>
<path fill="none" stroke="#000000" d="M251.7607,-349.6816C251.7607,-347.2303 251.7607,-344.779 251.7607,-342.3277"/>
<polygon fill="#000000" stroke="#000000" points="255.2608,-342.25 251.7607,-332.25 248.2608,-342.25 255.2608,-342.25"/>
</g>
<!-- N8 -->
<g id="node11" class="node">
<title>N8</title>
<polygon fill="#0c99d0" stroke="#0c99d0" points="986.6979,-184 763.6979,-184 763.6979,-148 986.6979,-148 986.6979,-184"/>
<text text-anchor="middle" x="875.1979" y="-162.3" font-family="Times-Roman" font-size="14.00" fill="#000000">sqlite&#45;3.24.0 (29.77 MiB)</text>
</g>
<!-- N9&#45;&gt;N8 -->
<g id="edge13" class="edge">
<title>N9&#45;&gt;N8</title>
<path fill="none" stroke="#000000" d="M702.8013,-130.0563C727.2081,-135.145 753.9068,-140.7115 778.8468,-145.9113"/>
<polygon fill="#000000" stroke="#000000" points="778.1723,-149.3459 788.6762,-147.9607 779.6011,-142.4933 778.1723,-149.3459"/>
</g>
<!-- N10&#45;&gt;N8 -->
<g id="edge14" class="edge">
<title>N10&#45;&gt;N8</title>
<path fill="none" stroke="#000000" d="M727.9165,-166C736.2873,-166 744.7591,-166 753.1885,-166"/>
<polygon fill="#000000" stroke="#000000" points="753.4398,-169.5001 763.4397,-166 753.4397,-162.5001 753.4398,-169.5001"/>
</g>
<!-- N11&#45;&gt;N8 -->
<g id="edge15" class="edge">
<title>N11&#45;&gt;N8</title>
<path fill="none" stroke="#000000" d="M702.8013,-201.9437C727.2081,-196.855 753.9068,-191.2885 778.8468,-186.0887"/>
<polygon fill="#000000" stroke="#000000" points="779.6011,-189.5067 788.6762,-184.0393 778.1723,-182.6541 779.6011,-189.5067"/>
</g>
</g>
</svg>
